<svg width="18" height="18" viewBox="0 0 18 18" fill="none" xmlns="http://www.w3.org/2000/svg">
<path d="M0.578369 7.42765C0.578369 3.79759 3.52184 0.857407 7.15272 0.857407H10.7384C14.426 0.857407 17.4146 3.84687 17.4146 7.53442C17.4146 9.96541 16.0948 12.1993 13.9685 13.3737L7.35394 17.0366V14.0061H7.29891C3.61136 14.0882 0.578369 11.1234 0.578369 7.42765ZM7.15272 2.49997C4.42853 2.49997 2.22093 4.70921 2.22093 7.42765C2.22093 10.1954 4.49588 12.421 7.26195 12.3636L7.55022 12.3553H8.9965V14.2443L13.1744 11.9365C14.7767 11.0495 15.7721 9.36588 15.7721 7.53442C15.7721 4.75028 13.5185 2.49997 10.7384 2.49997H7.15272Z" fill="#6D6D6D"/>
</svg>
