<svg width="18" height="15" viewBox="0 0 18 15" fill="none" xmlns="http://www.w3.org/2000/svg">
<path d="M12.9609 1.73192C11.9573 1.68264 10.7607 2.15077 9.7661 3.50588L9.10496 4.40108L8.44301 3.50588C7.44762 2.15077 6.25019 1.68264 5.24659 1.73192C4.22573 1.78941 3.3174 2.37252 2.85666 3.30056C2.40331 4.2204 2.33679 5.58372 3.25005 7.25914C4.13211 8.87706 5.92496 10.766 9.10496 12.6878C12.2833 10.766 14.0754 8.87706 14.9574 7.25914C15.8699 5.58372 15.8033 4.2204 15.3492 3.30056C14.8884 2.37252 13.9809 1.78941 12.9609 1.73192ZM16.3996 8.04757C15.29 10.0843 13.1136 12.2525 9.51807 14.3468L9.10496 14.5932L8.69104 14.3468C5.09465 12.2525 2.91826 10.0843 1.80706 8.04757C0.69012 5.99436 0.649056 4.05614 1.38492 2.56962C2.1134 1.09953 3.55885 0.179695 5.16364 0.0975668C6.51957 0.0236515 7.92971 0.557484 9.10414 1.74834C10.2778 0.557484 11.6879 0.0236515 13.043 0.0975668C14.6478 0.179695 16.0932 1.09953 16.8217 2.56962C17.5576 4.05614 17.5165 5.99436 16.3996 8.04757Z" fill="#6D6D6D"/>
</svg>
