<svg width="21" height="14" viewBox="0 0 21 14" fill="none" xmlns="http://www.w3.org/2000/svg">
<path d="M4.38992 0.401413L8.02984 3.80152L6.90961 5.00059L5.2112 3.41551V10.3553C5.2112 11.2587 5.94707 11.9979 6.85376 11.9979H11.3708V13.6405H6.85376C5.03955 13.6405 3.56864 12.1704 3.56864 10.3553V3.41551L1.87023 5.00059L0.75 3.80152L4.38992 0.401413ZM14.2453 2.14253H9.72824V0.499967H14.2453C16.0595 0.499967 17.5304 1.97006 17.5304 3.78509V10.7249L19.2288 9.13984L20.349 10.3389L16.7091 13.739L13.0692 10.3389L14.1894 9.13984L15.8879 10.7249V3.78509C15.8879 2.88168 15.152 2.14253 14.2453 2.14253Z" fill="#6D6D6D"/>
</svg>
