<svg width="18" height="18" viewBox="0 0 18 18" fill="none" xmlns="http://www.w3.org/2000/svg">
<path fill-rule="evenodd" clip-rule="evenodd" d="M12.8145 6.66924C12.6651 6.81847 12.4625 6.90229 12.2513 6.90229C12.0402 6.90229 11.8376 6.81847 11.6882 6.66924L9.59509 4.57612V12.4163C9.59509 12.6277 9.51114 12.8303 9.36169 12.9798C9.21225 13.1292 9.00956 13.2132 8.79822 13.2132C8.58687 13.2132 8.38418 13.1292 8.23474 12.9798C8.0853 12.8303 8.00134 12.6277 8.00134 12.4163V4.57612L5.90822 6.66924C5.75716 6.81 5.55736 6.88663 5.35091 6.88299C5.14447 6.87935 4.9475 6.79572 4.80149 6.64972C4.65549 6.50372 4.57186 6.30674 4.56822 6.1003C4.56458 5.89385 4.64121 5.69405 4.78197 5.54299L8.23509 2.08987L8.79822 1.52568L9.36134 2.08881L12.8145 5.54193C12.8885 5.61593 12.9473 5.7038 12.9873 5.80052C13.0274 5.89723 13.048 6.0009 13.048 6.10559C13.048 6.21028 13.0274 6.31394 12.9873 6.41066C12.9473 6.50737 12.8885 6.59524 12.8145 6.66924ZM2.95447 10.8226C2.95447 10.6112 2.87051 10.4085 2.72107 10.2591C2.57163 10.1096 2.36894 10.0257 2.15759 10.0257C1.94625 10.0257 1.74356 10.1096 1.59412 10.2591C1.44467 10.4085 1.36072 10.6112 1.36072 10.8226V14.2757C1.36072 14.8393 1.5846 15.3798 1.98312 15.7783C2.38163 16.1768 2.92213 16.4007 3.48572 16.4007H14.1107C14.6743 16.4007 15.2148 16.1768 15.6133 15.7783C16.0118 15.3798 16.2357 14.8393 16.2357 14.2757V10.8226C16.2357 10.6112 16.1518 10.4085 16.0023 10.2591C15.8529 10.1096 15.6502 10.0257 15.4388 10.0257C15.2275 10.0257 15.0248 10.1096 14.8754 10.2591C14.7259 10.4085 14.642 10.6112 14.642 10.8226V14.2757C14.642 14.4166 14.586 14.5517 14.4864 14.6513C14.3867 14.751 14.2516 14.8069 14.1107 14.8069H3.48572C3.34482 14.8069 3.2097 14.751 3.11007 14.6513C3.01044 14.5517 2.95447 14.4166 2.95447 14.2757V10.8226Z" fill="black"/>
</svg>
