<svg width="58" height="18" viewBox="0 0 58 18" fill="none" xmlns="http://www.w3.org/2000/svg">
<path d="M10.94 5.48C10.94 6.29333 10.7533 7.04 10.38 7.72C10.0067 8.38667 9.43333 8.92667 8.66 9.34C7.88667 9.75333 6.92667 9.96 5.78 9.96H3.66V15H0.24V0.96H5.78C6.9 0.96 7.84667 1.15333 8.62 1.54C9.39333 1.92667 9.97333 2.46 10.36 3.14C10.7467 3.82 10.94 4.6 10.94 5.48ZM5.52 7.24C6.17333 7.24 6.66 7.08667 6.98 6.78C7.3 6.47333 7.46 6.04 7.46 5.48C7.46 4.92 7.3 4.48667 6.98 4.18C6.66 3.87333 6.17333 3.72 5.52 3.72H3.66V7.24H5.52ZM19.3605 15.14C18.0405 15.14 16.8271 14.8333 15.7205 14.22C14.6271 13.6067 13.7538 12.7533 13.1005 11.66C12.4605 10.5533 12.1405 9.31333 12.1405 7.94C12.1405 6.56667 12.4605 5.33333 13.1005 4.24C13.7538 3.14667 14.6271 2.29333 15.7205 1.68C16.8271 1.06667 18.0405 0.76 19.3605 0.76C20.6805 0.76 21.8871 1.06667 22.9805 1.68C24.0871 2.29333 24.9538 3.14667 25.5805 4.24C26.2205 5.33333 26.5405 6.56667 26.5405 7.94C26.5405 9.31333 26.2205 10.5533 25.5805 11.66C24.9405 12.7533 24.0738 13.6067 22.9805 14.22C21.8871 14.8333 20.6805 15.14 19.3605 15.14ZM19.3605 12.02C20.4805 12.02 21.3738 11.6467 22.0405 10.9C22.7205 10.1533 23.0605 9.16667 23.0605 7.94C23.0605 6.7 22.7205 5.71333 22.0405 4.98C21.3738 4.23333 20.4805 3.86 19.3605 3.86C18.2271 3.86 17.3205 4.22667 16.6405 4.96C15.9738 5.69333 15.6405 6.68667 15.6405 7.94C15.6405 9.18 15.9738 10.1733 16.6405 10.92C17.3205 11.6533 18.2271 12.02 19.3605 12.02ZM33.7031 0.96C35.1831 0.96 36.4765 1.25333 37.5831 1.84C38.6898 2.42667 39.5431 3.25333 40.1431 4.32C40.7565 5.37333 41.0631 6.59333 41.0631 7.98C41.0631 9.35333 40.7565 10.5733 40.1431 11.64C39.5431 12.7067 38.6831 13.5333 37.5631 14.12C36.4565 14.7067 35.1698 15 33.7031 15H28.4431V0.96H33.7031ZM33.4831 12.04C34.7765 12.04 35.7831 11.6867 36.5031 10.98C37.2231 10.2733 37.5831 9.27333 37.5831 7.98C37.5831 6.68667 37.2231 5.68 36.5031 4.96C35.7831 4.24 34.7765 3.88 33.4831 3.88H31.8631V12.04H33.4831Z" fill="#010005"/>
<path d="M52.9744 17.4L51.1744 14.98C50.641 15.0867 50.121 15.14 49.6144 15.14C48.2944 15.14 47.081 14.8333 45.9744 14.22C44.881 13.6067 44.0077 12.7533 43.3544 11.66C42.7144 10.5533 42.3944 9.31333 42.3944 7.94C42.3944 6.56667 42.7144 5.33333 43.3544 4.24C44.0077 3.14667 44.881 2.29333 45.9744 1.68C47.081 1.06667 48.2944 0.76 49.6144 0.76C50.9344 0.76 52.141 1.06667 53.2344 1.68C54.341 2.29333 55.2077 3.14667 55.8344 4.24C56.4744 5.33333 56.7944 6.56667 56.7944 7.94C56.7944 9.14 56.5477 10.24 56.0544 11.24C55.5744 12.2267 54.901 13.0467 54.0344 13.7L57.1144 17.4H52.9744ZM45.8944 7.94C45.8944 9.18 46.2277 10.1733 46.8944 10.92C47.5744 11.6533 48.481 12.02 49.6144 12.02C50.7344 12.02 51.6277 11.6467 52.2944 10.9C52.9744 10.1533 53.3144 9.16667 53.3144 7.94C53.3144 6.7 52.9744 5.71333 52.2944 4.98C51.6277 4.23333 50.7344 3.86 49.6144 3.86C48.481 3.86 47.5744 4.22667 46.8944 4.96C46.2277 5.69333 45.8944 6.68667 45.8944 7.94Z" fill="#00CDA3"/>
</svg>
