<svg width="24" height="24" viewBox="0 0 24 24" fill="none" xmlns="http://www.w3.org/2000/svg">
<path d="M4.25 2.5C3.0095 2.5 2 3.5095 2 4.75V15.25C2 16.4905 3.0095 17.5 4.25 17.5H8.5V20H6.75C6.65062 19.9986 6.55194 20.017 6.45972 20.054C6.36749 20.0911 6.28355 20.1461 6.21277 20.2159C6.142 20.2857 6.08579 20.3688 6.04743 20.4605C6.00907 20.5522 5.98932 20.6506 5.98932 20.75C5.98932 20.8494 6.00907 20.9478 6.04743 21.0395C6.08579 21.1312 6.142 21.2143 6.21277 21.2841C6.28355 21.3539 6.36749 21.4089 6.45972 21.446C6.55194 21.483 6.65062 21.5014 6.75 21.5H9.12695C9.20747 21.5132 9.2896 21.5132 9.37012 21.5H14.627C14.7075 21.5132 14.7896 21.5132 14.8701 21.5H17.25C17.3494 21.5014 17.4481 21.483 17.5403 21.446C17.6325 21.4089 17.7164 21.3539 17.7872 21.2841C17.858 21.2143 17.9142 21.1312 17.9526 21.0395C17.9909 20.9478 18.0107 20.8494 18.0107 20.75C18.0107 20.6506 17.9909 20.5522 17.9526 20.4605C17.9142 20.3688 17.858 20.2857 17.7872 20.2159C17.7164 20.1461 17.6325 20.0911 17.5403 20.054C17.4481 20.017 17.3494 19.9986 17.25 20H15.5V17.5H19.75C20.9905 17.5 22 16.4905 22 15.25V4.75C22 3.5095 20.9905 2.5 19.75 2.5H4.25ZM12 6C13.0675 6 14.0717 6.41635 14.8262 7.17285C15.0337 7.38085 15.34 7.5 15.666 7.5H18.75C19.164 7.5 19.5 7.836 19.5 8.25C19.5 8.664 19.164 9 18.75 9H15.666C14.9335 9 14.2591 8.72742 13.7646 8.23242C13.2931 7.76042 12.6665 7.5 12 7.5C11.3335 7.5 10.7069 7.76042 10.2354 8.23242C9.74085 8.72742 9.06648 9 8.33398 9H5.25C4.836 9 4.5 8.664 4.5 8.25C4.5 7.836 4.836 7.5 5.25 7.5H8.33398C8.65998 7.5 8.96633 7.38085 9.17383 7.17285C9.92833 6.41635 10.9325 6 12 6ZM12 9C12.5525 9 13 9.4475 13 10C13 10.5525 12.5525 11 12 11C11.4475 11 11 10.5525 11 10C11 9.4475 11.4475 9 12 9ZM5.25 11H8.33398C9.06648 11 9.74085 11.2726 10.2354 11.7676C10.7069 12.2396 11.3335 12.5 12 12.5C12.6665 12.5 13.2931 12.2396 13.7646 11.7676C14.2591 11.2726 14.9335 11 15.666 11H18.75C19.164 11 19.5 11.336 19.5 11.75C19.5 12.164 19.164 12.5 18.75 12.5H15.666C15.34 12.5 15.0337 12.6191 14.8262 12.8271C14.0717 13.5836 13.0675 14 12 14C10.9325 14 9.92833 13.5836 9.17383 12.8271C8.96633 12.6191 8.65998 12.5 8.33398 12.5H5.25C4.836 12.5 4.5 12.164 4.5 11.75C4.5 11.336 4.836 11 5.25 11ZM10 17.5H14V20H10V17.5Z" fill="#15C5A1"/>
</svg>
